<svg width="195" height="58" fill="none" xmlns="http://www.w3.org/2000/svg"><path d="M195 51.656c0 3.155-2.51 5.71-5.615 5.71H5.623C2.519 57.366 0 54.811 0 51.656V6.118C0 2.964 2.52.4 5.623.4h183.76c3.107 0 5.616 2.564 5.616 5.718L195 51.656Z" fill="#000"/><path d="M42.911 28.563c-.042-4.77 3.855-7.09 4.033-7.199-2.207-3.26-5.628-3.706-6.83-3.741-2.873-.306-5.66 1.742-7.123 1.742-1.493 0-3.747-1.712-6.176-1.662-3.126.049-6.05 1.882-7.654 4.73-3.31 5.806-.841 14.338 2.33 19.031 1.586 2.299 3.44 4.865 5.866 4.775 2.373-.1 3.26-1.533 6.124-1.533 2.838 0 3.671 1.533 6.145 1.475 2.548-.041 4.152-2.309 5.683-4.628 1.833-2.634 2.569-5.229 2.598-5.362-.06-.02-4.947-1.91-4.995-7.628ZM38.237 14.536c1.277-1.618 2.15-3.819 1.908-6.052-1.848.083-4.159 1.295-5.49 2.877-1.177 1.394-2.228 3.68-1.956 5.828 2.075.157 4.206-1.06 5.538-2.653ZM77.262 45.909h-3.317l-1.817-5.785h-6.316l-1.73 5.785h-3.23l6.257-19.696h3.865l6.288 19.696Zm-5.682-8.213-1.643-5.143c-.174-.525-.5-1.762-.98-3.71h-.059c-.19.837-.5 2.075-.923 3.71l-1.614 5.143h5.22ZM93.355 38.633c0 2.415-.645 4.325-1.933 5.726-1.154 1.248-2.587 1.87-4.297 1.87-1.847 0-3.173-.671-3.98-2.015h-.059v7.482h-3.114V36.382c0-1.518-.04-3.077-.116-4.675h2.74l.173 2.25h.058c1.039-1.695 2.615-2.542 4.73-2.542 1.654 0 3.034.662 4.138 1.986 1.107 1.326 1.66 3.07 1.66 5.232Zm-3.173.115c0-1.382-.307-2.521-.923-3.418-.674-.936-1.578-1.403-2.711-1.403-.769 0-1.467.26-2.09.774-.626.518-1.035 1.194-1.226 2.032-.096.39-.144.71-.144.962v2.368c0 1.033.312 1.904.937 2.616.625.712 1.438 1.067 2.437 1.067 1.172 0 2.085-.458 2.738-1.373.655-.916.982-2.124.982-3.624ZM109.476 38.633c0 2.415-.644 4.325-1.934 5.726-1.153 1.248-2.585 1.87-4.296 1.87-1.846 0-3.172-.671-3.979-2.015h-.058v7.482h-3.114V36.382c0-1.518-.04-3.077-.116-4.675h2.739l.174 2.25h.058c1.037-1.695 2.613-2.542 4.73-2.542 1.652 0 3.032.662 4.139 1.986 1.103 1.326 1.657 3.07 1.657 5.232Zm-3.173.115c0-1.382-.308-2.521-.924-3.418-.674-.936-1.575-1.403-2.71-1.403-.77 0-1.466.26-2.092.774-.625.518-1.032 1.194-1.224 2.032-.094.39-.144.71-.144.962v2.368c0 1.033.312 1.904.935 2.616.625.71 1.437 1.067 2.439 1.067 1.173 0 2.086-.458 2.739-1.373.654-.916.981-2.124.981-3.624ZM127.501 40.386c0 1.675-.574 3.038-1.727 4.09-1.266 1.15-3.029 1.724-5.295 1.724-2.091 0-3.768-.408-5.038-1.227l.722-2.63a8.451 8.451 0 0 0 4.502 1.258c1.173 0 2.086-.269 2.741-.805.653-.535.979-1.255.979-2.151 0-.8-.269-1.473-.808-2.02-.536-.545-1.431-1.053-2.681-1.522-3.404-1.286-5.104-3.17-5.104-5.648 0-1.619.596-2.947 1.789-3.98 1.189-1.034 2.776-1.55 4.759-1.55 1.769 0 3.238.312 4.411.935l-.778 2.572c-1.096-.604-2.334-.906-3.72-.906-1.096 0-1.952.274-2.565.819a2.351 2.351 0 0 0-.779 1.783c0 .779.297 1.422.893 1.928.518.468 1.46.974 2.827 1.52 1.673.683 2.901 1.48 3.692 2.395.787.912 1.18 2.053 1.18 3.415ZM137.797 34.074h-3.433v6.895c0 1.754.605 2.63 1.817 2.63.557 0 1.019-.048 1.384-.146l.086 2.396c-.614.233-1.421.35-2.422.35-1.23 0-2.191-.381-2.885-1.14-.691-.76-1.038-2.037-1.038-3.829v-7.159h-2.045v-2.368h2.045v-2.6l3.058-.936v3.536h3.433v2.371ZM153.285 38.691c0 2.183-.617 3.975-1.847 5.377-1.29 1.443-3.001 2.162-5.135 2.162-2.057 0-3.695-.69-4.916-2.073-1.221-1.382-1.831-3.127-1.831-5.23 0-2.201.628-4.004 1.888-5.405 1.258-1.404 2.955-2.105 5.089-2.105 2.057 0 3.712.691 4.961 2.075 1.195 1.342 1.791 3.075 1.791 5.2Zm-3.231.102c0-1.31-.277-2.433-.836-3.37-.653-1.133-1.586-1.699-2.796-1.699-1.252 0-2.202.567-2.855 1.7-.56.938-.836 2.079-.836 3.428 0 1.31.276 2.434.836 3.369.673 1.134 1.614 1.7 2.828 1.7 1.189 0 2.122-.578 2.795-1.73.574-.954.864-2.09.864-3.398ZM163.407 34.482a5.341 5.341 0 0 0-.982-.088c-1.095 0-1.942.42-2.538 1.258-.519.74-.779 1.676-.779 2.805v7.452h-3.113l.03-9.73c0-1.637-.04-3.127-.117-4.47h2.712l.114 2.716h.086c.329-.933.848-1.685 1.557-2.25.694-.507 1.444-.76 2.251-.76.288 0 .548.02.779.058v3.009ZM177.335 38.136a7.53 7.53 0 0 1-.114 1.43h-9.343c.037 1.404.488 2.477 1.356 3.217.787.661 1.805.993 3.055.993 1.384 0 2.646-.224 3.781-.672l.487 2.19c-1.326.586-2.892.878-4.699.878-2.173 0-3.879-.648-5.121-1.943-1.238-1.295-1.859-3.034-1.859-5.216 0-2.141.577-3.925 1.732-5.347 1.21-1.519 2.844-2.278 4.901-2.278 2.02 0 3.549.76 4.588 2.278.822 1.206 1.236 2.698 1.236 4.47Zm-2.97-.819c.02-.935-.183-1.743-.605-2.426-.539-.877-1.367-1.315-2.481-1.315-1.018 0-1.847.427-2.479 1.286-.519.682-.827 1.5-.922 2.454h6.487v.001ZM66.58 11.473c-.882 0-1.575.313-2.08.938-.505.624-.757 1.487-.757 2.586 0 1.151.241 2.022.725 2.613.488.59 1.192.886 2.112.886.398 0 .783-.039 1.155-.116.373-.081.76-.184 1.162-.308v1.316c-.736.278-1.57.417-2.503.417-1.374 0-2.429-.415-3.165-1.245-.736-.835-1.104-2.026-1.104-3.575 0-.976.178-1.83.533-2.562a3.844 3.844 0 0 1 1.553-1.681c.676-.39 1.47-.585 2.382-.585a5.91 5.91 0 0 1 2.657.604l-.552 1.277a7.827 7.827 0 0 0-1.008-.391 3.529 3.529 0 0 0-1.11-.174Zm8.582 1.104h1.656L73.885 16l3.183 3.678h-1.733l-3.068-3.601v3.6H70.76v-7.099h1.508v3.447l2.895-3.447Zm7.523 7.1-.302-.989h-.051c-.342.432-.687.728-1.033.886-.347.154-.792.231-1.336.231-.697 0-1.243-.188-1.636-.565-.39-.376-.584-.91-.584-1.598 0-.732.271-1.284.815-1.656.543-.373 1.371-.576 2.484-.61l1.226-.038v-.38c0-.453-.107-.79-.321-1.013-.21-.227-.537-.34-.982-.34-.364 0-.713.053-1.047.16a7.904 7.904 0 0 0-.962.379l-.488-1.079a5.157 5.157 0 0 1 1.264-.455c.458-.107.89-.161 1.297-.161.903 0 1.583.197 2.041.59.462.394.694 1.013.694 1.856v4.782h-1.079Zm-2.247-1.027c.548 0 .987-.152 1.316-.456.334-.308.501-.738.501-1.29v-.616l-.911.038c-.71.026-1.229.145-1.554.36-.32.21-.481.532-.481.969 0 .316.094.563.282.738.188.171.47.257.847.257Zm6.76-6.073v2.594c0 .727.376 1.09 1.13 1.09.363 0 .718-.048 1.065-.147a5.548 5.548 0 0 0 1.117-.488v-3.049h1.508v7.1H90.51v-3.01a5.466 5.466 0 0 1-1.207.57c-.385.12-.807.18-1.264.18-.74 0-1.319-.19-1.734-.571-.415-.385-.622-.922-.622-1.611v-2.658h1.515Zm11.419 7.1-.302-.989h-.051c-.342.432-.687.728-1.033.886-.347.154-.792.231-1.336.231-.697 0-1.243-.188-1.636-.565-.39-.376-.585-.91-.585-1.598 0-.732.272-1.284.816-1.656.543-.373 1.371-.576 2.484-.61l1.226-.038v-.38c0-.453-.107-.79-.321-1.013-.21-.227-.537-.34-.982-.34-.364 0-.713.053-1.047.16a7.904 7.904 0 0 0-.962.379l-.488-1.079a5.157 5.157 0 0 1 1.264-.455c.458-.107.89-.161 1.297-.161.903 0 1.583.197 2.041.59.462.394.693 1.013.693 1.856v4.782h-1.078ZM96.37 18.65c.548 0 .987-.152 1.316-.456.334-.308.5-.738.5-1.29v-.616l-.91.038c-.711.026-1.229.145-1.554.36-.32.21-.481.532-.481.969 0 .316.094.563.282.738.188.171.47.257.847.257Zm10.765-6.073v1.181h-2.311v5.919h-1.515v-5.918h-2.311v-1.182h6.137Zm2.876 2.838h1.778c1.981 0 2.972.684 2.972 2.054 0 .723-.253 1.273-.758 1.65-.505.372-1.243.558-2.214.558h-3.287v-7.1h1.509v2.838Zm3.235 2.092c0-.355-.135-.603-.405-.745-.269-.14-.65-.211-1.142-.211h-1.688v2.009h1.714c.496 0 .873-.09 1.129-.27.261-.18.392-.44.392-.783Zm12.767-3.113c0 .839-.49 1.346-1.47 1.521v.052c.548.064.967.237 1.258.52.291.282.437.648.437 1.097 0 .672-.257 1.19-.77 1.554-.51.359-1.252.539-2.228.539h-3.389v-7.1h3.376c1.858 0 2.786.606 2.786 1.817Zm-1.322 3.1c0-.342-.133-.584-.398-.725-.265-.145-.663-.218-1.194-.218h-1.74v2.009h1.778c1.036 0 1.554-.355 1.554-1.066Zm-.186-2.972c0-.282-.112-.485-.334-.61-.218-.128-.546-.192-.982-.192h-1.83v1.707h1.605c.505 0 .888-.064 1.149-.192.261-.133.392-.37.392-.713Z" fill="#fff"/></svg>