<svg width="195" height="58" fill="none" xmlns="http://www.w3.org/2000/svg"><path d="M187.778 57.6H7.222C3.252 57.6 0 54.394 0 50.48V7.754C0 3.84 3.252.634 7.222.634h180.556c3.97 0 7.222 3.206 7.222 7.12V50.48c0 3.915-3.252 7.121-7.222 7.121Z" fill="#000"/><path d="M98.417 31.612c-3.392 0-6.164 2.546-6.164 6.058 0 3.484 2.772 6.056 6.164 6.056 3.4 0 6.172-2.572 6.172-6.056 0-3.512-2.772-6.058-6.172-6.058Zm0 9.73c-1.861 0-3.463-1.516-3.463-3.672 0-2.184 1.602-3.672 3.463-3.672 1.862 0 3.471 1.488 3.471 3.672 0 2.156-1.609 3.671-3.47 3.671Zm-13.45-9.73c-3.4 0-6.163 2.546-6.163 6.058 0 3.484 2.764 6.056 6.164 6.056 3.398 0 6.164-2.572 6.164-6.056 0-3.512-2.766-6.058-6.164-6.058Zm0 9.73c-1.863 0-3.47-1.516-3.47-3.672 0-2.184 1.607-3.672 3.47-3.672 1.862 0 3.464 1.488 3.464 3.672 0 2.156-1.602 3.671-3.463 3.671Zm-16.004-7.873v2.574h6.235c-.183 1.439-.67 2.496-1.418 3.233-.91.89-2.327 1.878-4.817 1.878a6.797 6.797 0 0 1-6.841-6.836 6.797 6.797 0 0 1 6.841-6.836c2.075 0 3.584.8 4.698 1.836l1.84-1.814c-1.558-1.467-3.63-2.594-6.538-2.594-5.261 0-9.683 4.22-9.683 9.408s4.422 9.409 9.683 9.409c2.844 0 4.98-.919 6.66-2.642 1.72-1.697 2.256-4.082 2.256-6.008 0-.599-.05-1.149-.14-1.608h-8.776Zm65.444 1.996c-.507-1.355-2.072-3.853-5.261-3.853-3.16 0-5.79 2.455-5.79 6.058 0 3.393 2.603 6.056 6.093 6.056 2.822 0 4.451-1.696 5.121-2.684l-2.095-1.376c-.698 1.008-1.65 1.675-3.026 1.675-1.366 0-2.347-.618-2.975-1.835l8.217-3.352-.284-.69Zm-8.377 2.017c-.071-2.336 1.839-3.532 3.208-3.532 1.073 0 1.983.528 2.286 1.285l-5.494 2.247Zm-6.679 5.876h2.701V25.556h-2.701v17.802Zm-4.424-10.396h-.09c-.607-.709-1.764-1.35-3.23-1.35-3.077 0-5.89 2.664-5.89 6.078 0 3.395 2.813 6.037 5.89 6.037 1.466 0 2.623-.647 3.23-1.377h.09v.87c0 2.315-1.255 3.56-3.279 3.56-1.65 0-2.674-1.175-3.096-2.163l-2.349.966c.677 1.606 2.47 3.582 5.445 3.582 3.167 0 5.84-1.837 5.84-6.307V31.98h-2.561v.98Zm-3.089 8.38c-1.862 0-3.42-1.537-3.42-3.652 0-2.135 1.558-3.692 3.42-3.692 1.834 0 3.281 1.557 3.281 3.692 0 2.115-1.447 3.651-3.281 3.651Zm35.215-15.786h-6.46v17.802h2.694v-6.745h3.766c2.992 0 5.926-2.135 5.926-5.53 0-3.392-2.941-5.527-5.926-5.527Zm.071 8.58h-3.837v-6.104h3.837a3.111 3.111 0 0 1 3.16 3.052c0 1.378-1.149 3.053-3.16 3.053Zm16.653-2.558c-1.947 0-3.971.848-4.803 2.726l2.39.988c.515-.988 1.461-1.309 2.461-1.309 1.398 0 2.815.828 2.837 2.29v.187c-.488-.278-1.531-.69-2.815-.69-2.575 0-5.198 1.398-5.198 4.006 0 2.386 2.109 3.922 4.479 3.922 1.813 0 2.813-.806 3.442-1.745h.092v1.377h2.602V36.5c0-3.156-2.391-4.922-5.487-4.922Zm-.325 9.756c-.882 0-2.109-.43-2.109-1.508 0-1.378 1.531-1.907 2.856-1.907 1.186 0 1.742.259 2.463.599-.211 1.648-1.65 2.816-3.21 2.816Zm15.291-9.366-3.097 7.717h-.092l-3.201-7.717h-2.905l4.81 10.785-2.745 6h2.815l7.412-16.785h-2.997Zm-24.283 11.39h2.701V25.556h-2.701v17.802Z" fill="#fff"/><path d="M15.073 11.369c-.424.438-.67 1.12-.67 2.003v31.495c0 .883.246 1.565.67 2.003l.105.096 17.9-17.642v-.417l-17.9-17.641-.105.103Z" fill="url(#a)"/><path d="m39.038 35.209-5.96-5.884v-.417l5.967-5.883.134.076 7.067 3.965c2.017 1.125 2.017 2.976 0 4.109l-7.067 3.957-.14.077Z" fill="url(#b)"/><path d="m39.179 35.131-6.101-6.015L15.073 46.87c.67.694 1.762.778 3.004.083L39.18 35.131Z" fill="url(#c)"/><path d="M39.179 23.101 18.077 11.28c-1.242-.687-2.334-.603-3.004.09l18.005 17.748 6.1-6.016Z" fill="url(#d)"/><path d="M59.221 16.728h.605c.517-.945.95-2.006 1.3-3.183.35-1.176.574-2.357.674-3.54h4.038v6.723h1.011v3.252h-1.23v-2.155h-5.167v2.155h-1.23v-3.252Zm3.649-5.617c-.079.81-.279 1.75-.6 2.82-.32 1.066-.686 1.998-1.096 2.797h3.386v-5.617h-1.69Zm12.19 2.793c0 1.273-.319 2.262-.957 2.969-.635.706-1.535 1.059-2.702 1.059-1.18 0-2.087-.35-2.722-1.049-.632-.702-.947-1.699-.947-2.99 0-1.29.317-2.282.952-2.974.638-.692 1.548-1.038 2.728-1.038 1.163 0 2.061.351 2.696 1.054.635.702.952 1.692.952 2.969Zm-5.97 0c0 .963.195 1.694.584 2.193.388.496.964.743 1.727.743.76 0 1.332-.246 1.718-.738.388-.492.583-1.225.583-2.198 0-.96-.193-1.687-.578-2.183-.382-.495-.952-.743-1.712-.743-.767 0-1.346.248-1.738.743-.39.496-.583 1.223-.583 2.183Zm10.977-2.915c-.735 0-1.312.26-1.733.78-.42.521-.631 1.24-.631 2.156 0 .96.201 1.685.604 2.177.407.492.993.738 1.76.738.332 0 .653-.032.963-.096.31-.068.633-.153.968-.257v1.097c-.613.232-1.309.348-2.086.348-1.145 0-2.024-.346-2.637-1.038-.614-.695-.92-1.689-.92-2.98 0-.813.148-1.524.444-2.134.3-.61.73-1.077 1.294-1.401.564-.325 1.225-.487 1.985-.487.799 0 1.537.168 2.214.503l-.46 1.064a6.525 6.525 0 0 0-.84-.326 2.94 2.94 0 0 0-.925-.144Zm6.317 6.836h-1.278V11.1h-2.3v-1.097h5.879v1.097h-2.3v6.724Zm9.452-7.82-2.466 5.562c-.303.681-.58 1.175-.834 1.482a2.335 2.335 0 0 1-.883.669c-.331.142-.734.214-1.209.214-.413 0-.797-.054-1.15-.16v-1.15c.35.138.715.208 1.097.208.324 0 .595-.079.813-.236.221-.16.42-.447.6-.86l-2.884-5.73h1.38l1.91 3.921c.17.371.276.619.315.744h.054c.021-.093.075-.241.16-.444l1.76-4.22h1.337Zm7.051 7.82h-1.284V11.1h-3.45v6.724h-1.279v-7.82h6.013v7.82Zm8.232 0h-1.284V14.3h-3.605v3.525h-1.279v-7.82h1.279v3.198h3.605v-3.199h1.284v7.82Zm9.002-3.921c0 1.273-.319 2.262-.957 2.969-.635.706-1.535 1.059-2.701 1.059-1.181 0-2.088-.35-2.723-1.049-.631-.702-.947-1.699-.947-2.99 0-1.29.318-2.282.952-2.974.639-.692 1.548-1.038 2.728-1.038 1.163 0 2.062.351 2.696 1.054.635.702.952 1.692.952 2.969Zm-5.969 0c0 .963.194 1.694.583 2.193.389.496.965.743 1.728.743.759 0 1.332-.246 1.717-.738.388-.492.583-1.225.583-2.198 0-.96-.193-1.687-.578-2.183-.381-.495-.952-.743-1.712-.743-.766 0-1.346.248-1.738.743-.389.496-.583 1.223-.583 2.183Zm10.495-3.9h2.321c1.077 0 1.855.157 2.333.471.481.314.722.81.722 1.487 0 .457-.118.836-.353 1.14-.236.303-.574.493-1.017.572v.053c.55.104.953.309 1.209.615.261.303.391.715.391 1.236 0 .703-.246 1.253-.738 1.653-.489.396-1.17.594-2.044.594h-2.824v-7.82Zm1.278 3.231h1.231c.535 0 .925-.084 1.171-.251.246-.171.369-.46.369-.867 0-.367-.134-.633-.401-.797-.264-.164-.685-.246-1.262-.246h-1.108v2.161Zm0 1.038v2.477h1.359c.535 0 .938-.102 1.209-.305.274-.207.412-.532.412-.974 0-.406-.139-.708-.417-.904-.279-.196-.701-.294-1.268-.294h-1.295Z" fill="#fff"/><defs><linearGradient id="a" x1="31.489" y1="45.195" x2="7.59" y2="20.956" gradientUnits="userSpaceOnUse"><stop stop-color="#00A0FF"/><stop offset=".007" stop-color="#00A1FF"/><stop offset=".26" stop-color="#00BEFF"/><stop offset=".512" stop-color="#00D2FF"/><stop offset=".76" stop-color="#00DFFF"/><stop offset="1" stop-color="#00E3FF"/></linearGradient><linearGradient id="b" x1="48.872" y1="29.115" x2="13.921" y2="29.115" gradientUnits="userSpaceOnUse"><stop stop-color="#FFE000"/><stop offset=".409" stop-color="#FFBD00"/><stop offset=".775" stop-color="orange"/><stop offset="1" stop-color="#FF9C00"/></linearGradient><linearGradient id="c" x1="35.861" y1="25.846" x2="3.453" y2="-7.024" gradientUnits="userSpaceOnUse"><stop stop-color="#FF3A44"/><stop offset="1" stop-color="#C31162"/></linearGradient><linearGradient id="d" x1="10.54" y1="57.349" x2="25.012" y2="42.671" gradientUnits="userSpaceOnUse"><stop stop-color="#32A071"/><stop offset=".069" stop-color="#2DA771"/><stop offset=".476" stop-color="#15CF74"/><stop offset=".801" stop-color="#06E775"/><stop offset="1" stop-color="#00F076"/></linearGradient></defs></svg>