<svg width="1920" height="881" fill="none" xmlns="http://www.w3.org/2000/svg"><path d="M-634-392V813.259s418.811 67.613 689.153 66.864C518.532 878.839 725 813.259 725 813.259s410.79-110.582 679.5-110.582S2084 813.259 2084 813.259V-392H-634Z" fill="url(#a)" fill-opacity=".1"/><path d="M-4-128v853.637s253.304 48.012 491.636 47.356c259.891-.714 291.902-23.208 477.864-47.357 190.18-24.695 293.05-78.32 484.75-78.32s484.75 78.32 484.75 78.32V-128H-4Z" fill="#C4C4C4"/><path d="M-4-128v853.637s253.304 48.012 491.636 47.356c259.891-.714 291.902-23.208 477.864-47.357 190.18-24.695 293.05-78.32 484.75-78.32s484.75 78.32 484.75 78.32V-128H-4Z" fill="url(#b)"/><defs><linearGradient id="a" x1="5300.3" y1="1417.99" x2="857.624" y2="-3454.47" gradientUnits="userSpaceOnUse"><stop offset=".07" stop-color="#0082FD"/><stop offset=".861" stop-color="#00E0FF"/></linearGradient><linearGradient id="b" x1="-358" y1="1045.5" x2="1911.5" y2="-246" gradientUnits="userSpaceOnUse"><stop stop-color="#0082FD"/><stop offset="1" stop-color="#00E0FF"/></linearGradient></defs></svg>