<svg width="55" height="55" fill="none" xmlns="http://www.w3.org/2000/svg"><path fill-rule="evenodd" clip-rule="evenodd" d="M34.379 10.665h-2.18c-.283 0-.508.23-.594.5a1.834 1.834 0 0 1-1.747 1.276H23.87c-.818 0-1.51-.536-1.746-1.275-.087-.27-.311-.5-.595-.5h-2.18c-.704 0-1.275.57-1.275 1.275v31.871c0 .705.57 1.276 1.275 1.276h15.03c.705 0 1.276-.571 1.276-1.276v-.6c0-.291.236-.527.527-.526l2.1.007c.289 0 .523.236.523.525v.594a4.425 4.425 0 0 1-4.425 4.425h-15.03a4.425 4.425 0 0 1-4.426-4.425V11.941a4.425 4.425 0 0 1 4.425-4.425h15.03a4.425 4.425 0 0 1 4.426 4.425V13.7c0 .29-.236.525-.527.525l-2.1-.007a.525.525 0 0 1-.523-.525V11.94c0-.705-.57-1.276-1.275-1.276Z" fill="url(#a)"/><path fill-rule="evenodd" clip-rule="evenodd" d="M34.379 10.665h-2.18c-.283 0-.508.23-.594.5a1.834 1.834 0 0 1-1.747 1.276H23.87c-.818 0-1.51-.536-1.746-1.275-.087-.27-.311-.5-.595-.5h-2.18c-.704 0-1.275.57-1.275 1.275v31.871c0 .705.57 1.276 1.275 1.276h15.03c.705 0 1.276-.571 1.276-1.276v-.6c0-.291.236-.527.527-.526l2.1.007c.289 0 .523.236.523.525v.594a4.425 4.425 0 0 1-4.425 4.425h-15.03a4.425 4.425 0 0 1-4.426-4.425V11.941a4.425 4.425 0 0 1 4.425-4.425h15.03a4.425 4.425 0 0 1 4.426 4.425V13.7c0 .29-.236.525-.527.525l-2.1-.007a.525.525 0 0 1-.523-.525V11.94c0-.705-.57-1.276-1.275-1.276Z" fill="#525252"/><rect x="21.677" y="16.993" width="20.806" height="3.159" rx="1.58" fill="#525252"/><rect x="21.677" y="16.993" width="20.806" height="3.159" rx="1.58" fill="url(#b)"/><rect x="21.677" y="21.786" width="16.776" height="3.159" rx="1.58" fill="#C4C4C4"/><rect x="21.677" y="21.786" width="16.776" height="3.159" rx="1.58" fill="url(#c)"/><rect x="21.677" y="21.786" width="16.776" height="3.159" rx="1.58" fill="url(#d)"/><rect x="21.677" y="26.798" width="19.39" height="3.159" rx="1.58" fill="#C4C4C4"/><rect x="21.677" y="26.798" width="19.39" height="3.159" rx="1.58" fill="url(#e)"/><rect x="21.677" y="26.798" width="19.39" height="3.159" rx="1.58" fill="#525252"/><rect x="21.677" y="26.798" width="19.39" height="3.159" rx="1.58" fill="url(#f)"/><rect x="21.677" y="31.808" width="22.331" height="3.159" rx="1.58" fill="#C4C4C4"/><rect x="21.677" y="31.808" width="22.331" height="3.159" rx="1.58" fill="url(#g)"/><rect x="21.677" y="31.808" width="22.331" height="3.159" rx="1.58" fill="url(#h)"/><rect x="21.677" y="36.819" width="15.577" height="3.159" rx="1.58" fill="#C4C4C4"/><rect x="21.677" y="36.819" width="15.577" height="3.159" rx="1.58" fill="url(#i)"/><rect x="21.677" y="36.819" width="15.577" height="3.159" rx="1.58" fill="#525252"/><rect x="21.677" y="36.819" width="15.577" height="3.159" rx="1.58" fill="url(#j)"/><defs><linearGradient id="a" x1="37.369" y1="46.209" x2="-1.534" y2="24.155" gradientUnits="userSpaceOnUse"><stop stop-color="#97CAFB"/><stop offset=".721" stop-color="#BAF3FF"/></linearGradient><linearGradient id="b" x1="41.212" y1="-17619.4" x2="12.737" y2="-17619.4" gradientUnits="userSpaceOnUse"><stop stop-color="#FFD12C"/><stop offset="1" stop-color="#FFA724"/></linearGradient><linearGradient id="c" x1="37.428" y1="-17614.6" x2="14.469" y2="-17614.6" gradientUnits="userSpaceOnUse"><stop offset=".333" stop-color="#FFD12C"/><stop offset=".484" stop-color="#FFA724"/></linearGradient><linearGradient id="d" x1="7.411" y1="24.725" x2="46.4" y2="10.372" gradientUnits="userSpaceOnUse"><stop offset=".07" stop-color="#0082FD"/><stop offset=".861" stop-color="#00E0FF"/></linearGradient><linearGradient id="e" x1="39.882" y1="-17609.6" x2="13.346" y2="-17609.6" gradientUnits="userSpaceOnUse"><stop offset=".333" stop-color="#FFD12C"/><stop offset=".484" stop-color="#FFA724"/></linearGradient><linearGradient id="f" x1="39.882" y1="-17609.6" x2="13.346" y2="-17609.6" gradientUnits="userSpaceOnUse"><stop stop-color="#FFD12C"/><stop offset="1" stop-color="#FFA724"/></linearGradient><linearGradient id="g" x1="42.644" y1="-17604.6" x2="12.082" y2="-17604.6" gradientUnits="userSpaceOnUse"><stop offset=".333" stop-color="#FFD12C"/><stop offset=".484" stop-color="#FFA724"/></linearGradient><linearGradient id="h" x1="2.686" y1="34.747" x2="50.208" y2="11.458" gradientUnits="userSpaceOnUse"><stop offset=".07" stop-color="#0082FD"/><stop offset=".861" stop-color="#00E0FF"/></linearGradient><linearGradient id="i" x1="36.303" y1="-17599.6" x2="14.984" y2="-17599.6" gradientUnits="userSpaceOnUse"><stop offset=".333" stop-color="#FFD12C"/><stop offset=".484" stop-color="#FFA724"/></linearGradient><linearGradient id="j" x1="36.303" y1="-17599.6" x2="14.984" y2="-17599.6" gradientUnits="userSpaceOnUse"><stop stop-color="#FFD12C"/><stop offset="1" stop-color="#FFA724"/></linearGradient></defs></svg>