<svg width="32" height="32" viewBox="0 0 32 32" fill="none" xmlns="http://www.w3.org/2000/svg">
<path d="M16.0004 0.640137C7.51718 0.640137 0.640381 7.51694 0.640381 16.0001C0.640381 24.4833 7.51718 31.3601 16.0004 31.3601C24.4836 31.3601 31.3604 24.4833 31.3604 16.0001C31.3604 7.51694 24.4836 0.640137 16.0004 0.640137ZM21.9076 17.9697C21.9076 17.9697 23.266 19.3105 23.6004 19.9329C23.61 19.9457 23.6148 19.9585 23.618 19.9649C23.754 20.1937 23.786 20.3713 23.7188 20.5041C23.6068 20.7249 23.2228 20.8337 23.0916 20.8433H20.6916C20.5252 20.8433 20.1764 20.8001 19.754 20.5089C19.4292 20.2817 19.1092 19.9089 18.7972 19.5457C18.3316 19.0049 17.9284 18.5377 17.522 18.5377C17.4704 18.5376 17.4191 18.5457 17.37 18.5617C17.0628 18.6609 16.6692 19.0993 16.6692 20.2673C16.6692 20.6321 16.3812 20.8417 16.178 20.8417H15.0788C14.7044 20.8417 12.754 20.7105 11.026 18.8881C8.91078 16.6561 7.00678 12.1793 6.99078 12.1377C6.87078 11.8481 7.11878 11.6929 7.38918 11.6929H9.81318C10.1364 11.6929 10.242 11.8897 10.3156 12.0641C10.402 12.2673 10.7188 13.0753 11.2388 13.9841C12.082 15.4657 12.5988 16.0673 13.0132 16.0673C13.0909 16.0664 13.1672 16.0467 13.2356 16.0097C13.7764 15.7089 13.6756 13.7809 13.6516 13.3809C13.6516 13.3057 13.65 12.5185 13.3732 12.1409C13.1748 11.8673 12.8372 11.7633 12.6324 11.7249C12.7153 11.6106 12.8245 11.5178 12.9508 11.4545C13.322 11.2689 13.9908 11.2417 14.6548 11.2417H15.0244C15.7444 11.2513 15.93 11.2977 16.1908 11.3633C16.7188 11.4897 16.73 11.8305 16.6836 12.9969C16.6692 13.3281 16.6548 13.7025 16.6548 14.1441C16.6548 14.2401 16.65 14.3425 16.65 14.4513C16.634 15.0449 16.6148 15.7185 17.034 15.9953C17.0887 16.0296 17.1518 16.0479 17.2164 16.0481C17.362 16.0481 17.8004 16.0481 18.9876 14.0113C19.3537 13.3558 19.6719 12.6745 19.9396 11.9729C19.9636 11.9313 20.034 11.8033 20.1172 11.7537C20.1786 11.7224 20.2467 11.7065 20.3156 11.7073H23.1652C23.4756 11.7073 23.6884 11.7537 23.7284 11.8737C23.7988 12.0641 23.7156 12.6449 22.4148 14.4065L21.834 15.1729C20.6548 16.7185 20.6548 16.7969 21.9076 17.9697Z" fill="white"/>
</svg>
